HIERARCHY
ROOT hip
{
	OFFSET 0.000000 0.000000 0.000000 
	CHANNELS 6 Xposition Yposition Zposition Xrotation Zrotation Yrotation
	JOINT abdomen
	{
		OFFSET 0.000000 3.402643 0.000000 
		CHANNELS 3 Xrotation Zrotation Yrotation
		JOINT chest
		{
			OFFSET 0.000000 8.438565 -0.680529 
			CHANNELS 3 Xrotation Zrotation Yrotation
			JOINT neck
			{
				OFFSET 0.000000 10.207942 -0.272212 
				CHANNELS 3 Xrotation Zrotation Yrotation
				JOINT head
				{
					OFFSET 0.000000 3.130431 0.000000 
					CHANNELS 3 Xrotation Zrotation Yrotation
					End Site
					{
						OFFSET 0.000000 3.130435 0.000000 
					}
				}
			}
			JOINT lCollar
			{
				OFFSET 3.470700 6.669187 -0.816635 
				CHANNELS 3 Yrotation Zrotation Xrotation
				JOINT lShldr
				{
					OFFSET 3.198488 0.000000 0.000000 
					CHANNELS 3 Zrotation Yrotation Xrotation
					JOINT lForeArm
					{
						OFFSET 10.139888 0.000000 0.000000 
						CHANNELS 3 Yrotation Zrotation Xrotation
						JOINT lHand
						{
							OFFSET 8.370511 0.000000 0.000000 
							CHANNELS 3 Zrotation Yrotation Xrotation
							End Site
							{
								OFFSET 4.083176 0.000000 0.000000 
							}
						}
					}
				}
			}
			JOINT rCollar
			{
				OFFSET -3.470700 6.669187 -0.816635 
				CHANNELS 3 Yrotation Zrotation Xrotation
				JOINT rShldr
				{
					OFFSET -3.198488 0.000000 0.000000 
					CHANNELS 3 Zrotation Yrotation Xrotation
					JOINT rForeArm
					{
						OFFSET -10.139888 0.000000 0.000000 
						CHANNELS 3 Yrotation Zrotation Xrotation
						JOINT rHand
						{
							OFFSET -8.370511 0.000000 0.000000 
							CHANNELS 3 Zrotation Yrotation Xrotation
							End Site
							{
								OFFSET -4.083176 0.000000 0.000000 
							}
						}
					}
				}
			}
		}
	}
	JOINT lThigh
	{
		OFFSET 5.308129 -1.633274 1.361059 
		CHANNELS 3 Xrotation Zrotation Yrotation
		JOINT lShin
		{
			OFFSET -2.041588 -20.007561 0.000000 
			CHANNELS 3 Xrotation Zrotation Yrotation
			JOINT lFoot
			{
				OFFSET 0.000000 -19.190928 -1.224953 
				CHANNELS 3 Xrotation Yrotation Zrotation
				End Site
				{
					OFFSET 0.000000 -2.449906 4.627600 
				}
			}
		}
	}
	JOINT rThigh
	{
		OFFSET -5.308129 -1.633274 1.361059 
		CHANNELS 3 Xrotation Zrotation Yrotation
		JOINT rShin
		{
			OFFSET 2.041588 -20.007561 0.000000 
			CHANNELS 3 Xrotation Zrotation Yrotation
			JOINT rFoot
			{
				OFFSET 0.000000 -19.190928 -1.224953 
				CHANNELS 3 Xrotation Yrotation Zrotation
				End Site
				{
					OFFSET 0.000000 -2.449906 4.627600 
				}
			}
		}
	}
}
MOTION
Frames: 13
Frame Time: 0.033333
0.038842 49.202206 -1.199068 -0.039063 0.019531 0.117174 0.000000 0.000000 0.000000 -3.242205 -0.185250 -0.067631 5.321714 0.351675 -0.142194 5.712871 -0.214570 0.196381 0.200561 10.790272 -2.424747 -1.978172 6.452931 -8.843996 1.451893 -4.615623 12.776958 1.916348 -2.256581 -3.504012 -0.019379 -8.841100 -2.397251 -1.811440 -11.850514 1.525939 -1.481371 3.728074 6.902534 0.285275 4.423902 -3.370447 6.707451 6.483610 2.895432 -2.510686 -3.778296 -2.360976 -3.985071 0.078982 -2.792761 6.316778 -5.517055 -5.569988 -1.365216 3.617946 -4.729630 -4.167825 -0.076836 1.852741 
0.026888 49.195534 -1.191027 -0.039063 0.039062 0.097630 0.000000 0.000000 0.000000 -3.212906 -0.175505 -0.068273 5.253344 0.358100 -0.038584 5.664043 -0.204808 0.283954 0.304882 10.619622 -2.397290 -1.849043 6.336368 -8.758773 1.443141 -4.725590 12.282687 2.191959 -2.122223 -3.520283 -0.062777 -8.800063 -2.376102 -1.881833 -11.811488 1.607600 -1.402091 3.822578 5.994111 0.278387 4.374583 -3.371052 6.874718 6.455031 2.859748 -2.817870 -3.741062 -2.536506 -3.847053 0.056708 -2.398900 6.128396 -5.552619 -5.598160 -0.924134 3.623893 -4.942946 -4.401191 -0.094978 2.249105 
0.019464 49.193520 -1.176114 -0.009766 0.126953 0.117166 0.000000 0.000000 0.000000 -3.242215 -0.234000 -0.074635 5.223950 0.275058 -0.038369 5.712871 -0.214570 0.303803 0.205129 10.448097 -2.419809 -1.670753 6.415323 -8.642724 1.460340 -4.772404 12.168833 2.389307 -2.305724 -3.531542 -0.018256 -8.870324 -2.395955 -1.890860 -11.860208 1.559176 -1.381710 3.832511 5.514695 0.501519 4.084443 -3.357048 6.840922 6.363345 2.789896 -2.830407 -3.725775 -2.409506 -3.852724 0.058250 -2.451193 6.159970 -5.603937 -5.583759 -1.032999 3.557699 -4.978138 -4.352465 -0.106494 2.116738 
0.012542 49.199936 -1.168061 0.068360 0.146484 0.205278 0.000000 0.000000 0.000000 -3.310582 -0.263232 -0.101961 5.204163 0.273923 -0.038876 5.781227 -0.234091 0.333806 0.091869 10.521939 -2.470682 -1.668961 6.464693 -8.534466 1.487634 -4.818110 12.075171 2.285748 -2.214279 -3.525816 0.005871 -8.822512 -2.446975 -1.960704 -11.938291 1.601542 -1.427030 3.871000 5.381751 0.565911 4.156697 -3.353539 6.781873 6.353286 2.720367 -2.831494 -3.688298 -2.665083 -3.897534 0.077396 -2.549332 6.131309 -5.604365 -5.604081 -1.082843 3.579976 -5.050479 -4.349612 -0.089193 2.124036 
0.003231 49.191128 -1.165520 0.097657 0.146484 0.234650 0.000000 0.000000 0.000000 -3.310582 -0.263232 -0.062899 5.165287 0.343480 -0.083925 5.761635 -0.438913 0.353818 0.044252 10.748520 -2.464181 -1.942931 6.402966 -9.076079 1.524873 -4.611955 12.400772 1.928665 -2.138417 -3.504775 0.123336 -8.661728 -2.445045 -2.070712 -12.240943 1.667021 -1.336456 3.820089 5.228462 0.461276 4.101645 -3.359447 6.754777 6.394796 2.765251 -2.840442 -3.726190 -2.574845 -3.870621 0.061616 -2.481657 6.137983 -5.611338 -5.644569 -1.092808 3.650511 -4.994409 -4.377055 -0.087423 2.294515 
-0.016905 49.193768 -1.152720 0.097657 0.166015 0.263983 0.000000 0.000000 0.000000 -3.271530 -0.302241 -0.099911 5.174763 0.287947 -0.129118 5.800773 -0.136555 0.250826 0.057315 10.865387 -2.441768 -2.086976 6.472011 -8.898431 1.450857 -4.669954 12.085403 2.076141 -2.148923 -3.513402 0.178889 -8.673220 -2.403089 -2.092677 -12.289950 1.785087 -1.383723 3.872061 5.193754 0.682655 4.339616 -3.346436 6.762007 6.373392 2.713322 -2.842494 -3.669188 -2.693908 -3.879550 0.073563 -2.519053 6.126924 -5.581432 -5.591917 -1.064586 3.572916 -5.156959 -4.394080 -0.098251 2.215882 
-0.026595 49.196918 -1.145458 0.097656 0.107422 0.175983 0.000000 0.000000 0.000000 -3.232454 -0.253502 -0.063808 5.155653 0.293799 -0.082319 6.103514 -0.068294 0.227591 0.112462 10.950409 -2.416403 -2.175936 6.540046 -8.932581 1.434135 -4.621264 12.228535 2.194240 -2.317765 -3.520102 0.169388 -8.692566 -2.380666 -2.075234 -12.251152 1.911104 -1.419086 3.948194 5.081581 0.710297 4.536880 -3.335009 6.803524 6.442916 2.740899 -2.878254 -3.636633 -2.585809 -3.889524 0.068422 -2.722298 6.127030 -5.513077 -5.544165 -1.082730 3.579740 -5.060235 -4.397694 -0.081449 2.127627 
-0.039935 49.199936 -1.145863 0.068359 0.068359 0.234468 0.000000 0.000000 0.000000 -3.164085 -0.214516 -0.066267 5.145937 0.309864 -0.167762 6.191393 -0.185382 0.173825 0.092982 10.872561 -2.346466 -2.030724 6.490897 -9.041980 1.452641 -4.616806 12.151432 1.983859 -2.399198 -3.507881 0.079372 -8.678503 -2.316473 -2.025759 -12.260989 1.898847 -1.413252 3.918899 5.236187 0.621704 4.375179 -3.350047 6.825788 6.504168 2.846821 -2.871064 -3.709270 -2.700507 -3.890839 0.073581 -2.614354 6.169482 -5.457115 -5.546108 -1.090378 3.594717 -5.168674 -4.391031 -0.083909 2.084145 
-0.049119 49.196663 -1.138399 0.087891 0.019531 0.253940 0.000000 0.000000 0.000000 -3.164076 -0.165763 -0.137321 5.194478 0.280399 -0.147906 6.269530 0.039030 0.154659 0.137102 10.793011 -2.356153 -1.921892 6.540223 -8.978121 1.425233 -4.599105 12.266006 2.073595 -2.266490 -3.513215 0.103688 -8.747503 -2.314685 -1.965490 -12.251223 1.837312 -1.519904 3.896948 5.621382 0.716029 4.439391 -3.344018 6.812020 6.559344 2.884005 -2.880623 -3.688808 -2.681187 -3.875419 0.072229 -2.561899 6.209176 -5.389288 -5.487616 -1.209317 3.569469 -5.254353 -4.334145 -0.089778 2.060114 
-0.057427 49.190872 -1.125526 0.078125 0.107422 0.215009 0.000000 0.000000 0.000000 -3.154319 -0.214518 -0.105366 5.272796 0.183142 -0.186566 6.396472 0.195168 0.041307 0.133325 10.714760 -2.341043 -1.892283 6.618499 -8.957476 1.397642 -4.563767 12.351284 2.019276 -2.338318 -3.509773 0.161281 -8.857386 -2.298104 -1.938586 -12.358939 1.972322 -1.467467 3.914974 5.473403 0.725770 4.273659 -3.343295 6.849602 6.480132 2.794642 -2.890677 -3.669742 -2.700254 -3.893221 0.075403 -2.592461 6.233922 -5.503336 -5.580327 -1.201092 3.631195 -5.040537 -4.369769 -0.087428 2.114320 
-0.071269 49.191502 -1.125489 0.107422 0.068359 0.263812 0.000000 0.000000 0.000000 -3.125022 -0.214524 -0.076179 5.292418 0.316948 -0.327271 6.435538 -0.165897 0.035577 0.090474 10.970248 -2.309403 -2.199134 6.607353 -9.130327 1.429088 -4.500676 12.428545 1.924304 -2.226741 -3.504584 0.103143 -8.718242 -2.282744 -2.045757 -12.436736 1.899504 -1.452001 3.901820 5.207885 0.851706 4.300575 -3.335446 6.812613 6.531113 2.850740 -2.869681 -3.675893 -2.750808 -3.905526 0.068807 -2.552994 6.195488 -5.444875 -5.554238 -1.149421 3.615101 -5.173322 -4.402164 -0.100192 2.098515 
-0.074917 49.193142 -1.109593 0.175781 0.087890 0.254191 0.000000 0.000000 0.000000 -3.134788 -0.214522 -0.056611 5.292673 0.271973 -0.398422 6.328108 -0.224432 -0.059442 0.174016 10.810369 -2.321159 -2.061225 6.588243 -9.093911 1.418112 -4.532921 12.380493 2.049287 -2.189712 -3.511681 -0.002153 -8.821746 -2.301132 -1.924935 -12.358587 1.766783 -1.489915 3.896301 5.150764 0.955816 4.365331 -3.329528 6.769958 6.518157 2.830311 -2.909541 -3.686979 -2.591312 -3.896218 0.071680 -2.551714 6.141094 -5.457782 -5.546711 -1.140712 3.617964 -5.182491 -4.438894 -0.091757 2.123522 
-0.090397 49.183449 -1.091146 0.048828 0.078125 0.244221 0.000000 0.000000 0.000000 -3.017608 -0.253554 -0.084290 5.487667 0.375081 -0.458730 6.083955 -0.273173 -0.017277 0.183019 10.770731 -2.213410 -1.785503 6.650491 -8.453508 1.425235 -4.736674 12.408902 2.143803 -2.134974 -3.517418 0.130592 -8.698863 -2.180824 -2.015519 -12.485546 1.858872 -1.467218 3.913562 5.023633 1.034028 4.369879 -3.324683 6.912766 6.541911 2.870264 -2.909689 -3.678795 -2.679584 -3.905331 0.076205 -2.571051 6.257252 -5.438027 -5.541941 -1.034047 3.628566 -5.009235 -4.536247 -0.109091 2.180390 
